<svg xmlns="http://www.w3.org/2000/svg" viewBox="0 0 512 512" stroke-linejoin="round" stroke-linecap="round"><rect width="512" height="512" rx="112" fill="#251c55"/><circle cx="256" cy="256" r="196" fill="#ff9f1c"/><circle cx="256" cy="256" r="196" fill="none" stroke="#1b1330" stroke-width="16"/><g transform="translate(66 110) rotate(-12 190 150) scale(3.8)"><path d="M8 47 C6 28 8 8 18 5 L36 4 C40 12 42 18 50 20 C56 22 62 25 68 28 C82 31 92 37 94 47 Z" fill="#ffffff" stroke="#1b1330" stroke-width="2.8"/><path d="M70 47 C72 38 84 35 94 47 Z" fill="#ebebeb" stroke="#1b1330" stroke-width="2"/><path d="M24 40 C44 42 60 36 78 26 C66 40 48 46 26 46 Z" fill="#ff4d6d" stroke="#1b1330" stroke-width="2"/><circle cx="22" cy="18" r="5" fill="#ff4d6d" stroke="#1b1330" stroke-width="2"/><path d="M38 8 L68 27" stroke="#bfbfbf" stroke-width="7"/><path d="M34 5 L42 11 M34 11 L42 5" stroke="#ff9f1c" stroke-width="2.6"/><path d="M44 11.333333333333332 L52 17.333333333333332 M44 17.333333333333332 L52 11.333333333333332" stroke="#ff9f1c" stroke-width="2.6"/><path d="M54 17.666666666666664 L62 23.666666666666664 M54 23.666666666666664 L62 17.666666666666664" stroke="#ff9f1c" stroke-width="2.6"/><path d="M64 24 L72 30 M64 30 L72 24" stroke="#ff9f1c" stroke-width="2.6"/><path d="M40 8 q-8 -10 -14 -4 q4 6 14 4 q4 -10 10 -8 q-2 8 -10 8" fill="none" stroke="#ff9f1c" stroke-width="2.4"/><rect x="5" y="46" width="91" height="8" rx="4" fill="#ffffff" stroke="#1b1330" stroke-width="2.8"/><path d="M10 51 L94 51" stroke="#bfbfbf" stroke-width="2"/><path d="M18 30 C22 26 28 25 34 25" stroke="#ffffff" stroke-width="3" opacity=".55" fill="none"/></g></svg>